<mxfile host="app.diagrams.net">
  <diagram name="Diagrama Sequencia" id="e0d4ac12-a343-464c-a17d-c82717ec50d5">
    <mxGraphModel dx="1220" dy="689" grid="1" gridSize="10" guides="1" tooltips="1" connect="1" arrows="1" fold="1" page="1" pageScale="1" pageWidth="827" pageHeight="1169" math="0" shadow="0">
      <root>
        <mxCell id="0" />
        <mxCell id="1" parent="0" />
        <!-- Adicione seus elementos de diagrama aqui -->
        <mxCell id="2" value="Diagrama Sequencia" style="text;html=1;strokeColor=none;fillColor=none;align=center;verticalAlign=middle;" vertex="1" parent="1">
          <mxGeometry x="20" y="20" width="160" height="60" as="geometry" />
        </mxCell>
      </root>
    </mxGraphModel>
  </diagram>
</mxfile>
